<?xml version="1.0" encoding="utf-8"?>
<!-- Generator: Adobe Illustrator 24.1.2, SVG Export Plug-In . SVG Version: 6.00 Build 0)  -->
<svg version="1.1" id="Capa_1" xmlns="http://www.w3.org/2000/svg" xmlns:xlink="http://www.w3.org/1999/xlink" x="0px" y="0px"
	 viewBox="0 0 686.8 126.4" style="enable-background:new 0 0 686.8 126.4;" xml:space="preserve">
<style type="text/css">
	.st0{fill:#B7B7B7;}
	.st1{fill:#FFFFFF;}
	.st2{font-family:'Poppins-Bold';}
	.st3{font-size:35.8173px;}
</style>
<path class="st0" d="M18.7,126.4C8.4,126.4,0,118,0,107.7v-89C0,8.4,8.4,0,18.7,0h649.4c10.3,0,18.7,8.4,18.7,18.7v88.9
	c0,10.4-8.4,18.8-18.7,18.8H18.7z"/>
<path class="st1" d="M668.1,124.4c9.2,0,16.7-7.5,16.7-16.8V18.7c0-9.2-7.5-16.7-16.7-16.7H18.7C9.5,2,2,9.5,2,18.7v89
	c0,9.2,7.5,16.7,16.7,16.7H668.1z"/>
<g>
	<g>
		<g>
			<g>
				<path class="st0" d="M47,31.4h64.2c4.7,0,8.5,3.8,8.5,8.5v37.2c0,4.7-3.8,8.5-8.5,8.5H47c-4.7,0-8.5-3.8-8.5-8.5V39.9
					C38.5,35.2,42.3,31.4,47,31.4z"/>
				<rect x="38.5" y="41.6" class="st1" width="81.1" height="13.5"/>
				<g>
					<path class="st1" d="M63.9,68.6H50.3c-0.9,0-1.7-0.8-1.7-1.7c0-0.9,0.8-1.7,1.7-1.7h13.5c0.9,0,1.7,0.8,1.7,1.7
						C65.6,67.8,64.8,68.6,63.9,68.6z"/>
					<path class="st1" d="M74,75.4H50.3c-0.9,0-1.7-0.8-1.7-1.7c0-0.9,0.8-1.7,1.7-1.7H74c0.9,0,1.7,0.8,1.7,1.7
						C75.7,74.6,74.9,75.4,74,75.4z"/>
				</g>
			</g>
		</g>
	</g>
	<text transform="matrix(1 0 0 1 132.6753 73.2822)" class="st1 st2 st3">Pay with credit or debit card</text>
	<g>
		<path class="st0" d="M144.8,64.3H141v9h-6.1V48.1h9.9c6.2,0,9.2,3.5,9.2,8.1C154.1,60.4,151.2,64.3,144.8,64.3z M144.3,59.4
			c2.4,0,3.5-1.2,3.5-3.2c0-1.9-1-3.2-3.5-3.2H141v6.3H144.3z"/>
		<path class="st0" d="M164.8,53c3,0,5.1,1.4,6.2,3.1v-2.8h6.1v20H171v-2.8c-1.1,1.8-3.2,3.1-6.2,3.1c-4.9,0-8.8-4-8.8-10.3
			C156,57,159.9,53,164.8,53z M166.6,58.3c-2.3,0-4.4,1.7-4.4,4.9c0,3.2,2.1,5,4.4,5c2.3,0,4.4-1.8,4.4-4.9
			C171,60.1,169,58.3,166.6,58.3z"/>
		<path class="st0" d="M195.4,53.3h6.6l-12.5,29.5h-6.6l4.6-10.2l-8.1-19.3h6.8l4.6,12.5L195.4,53.3z"/>
		<path class="st0" d="M209.7,53.3h6.1l2.8,14.3l3.4-14.3h6.5l3.4,14.2l2.8-14.2h5.8l-5.4,20h-6.8l-3.2-13l-3.3,13h-6.7L209.7,53.3z
			"/>
		<path class="st0" d="M242.2,47.9c0-1.9,1.5-3.3,3.7-3.3c2.1,0,3.6,1.5,3.6,3.3c0,1.8-1.5,3.3-3.6,3.3
			C243.7,51.2,242.2,49.8,242.2,47.9z M242.8,53.3h6.1v20h-6.1V53.3z"/>
		<path class="st0" d="M254.3,58.4h-2.4v-5.1h2.4v-4.9h6.1v4.9h4v5.1h-4v8c0,1.2,0.5,1.7,1.9,1.7h2.2v5.2h-3.1
			c-4.2,0-7.1-1.8-7.1-6.9V58.4z"/>
		<path class="st0" d="M267.9,46.8h6.1V56c1.2-1.7,3.4-2.9,6.2-2.9c4.5,0,7.6,3.2,7.6,8.5v11.7h-6.1V62.4c0-2.7-1.5-4.2-3.8-4.2
			c-2.3,0-3.8,1.5-3.8,4.2v10.9h-6.1V46.8z"/>
		<path class="st0" d="M308.5,53c5,0,8.6,2.8,9.6,7.5h-6.5c-0.5-1.4-1.5-2.3-3.2-2.3c-2.2,0-3.7,1.7-3.7,5s1.5,5,3.7,5
			c1.7,0,2.7-0.8,3.2-2.3h6.5c-1,4.6-4.6,7.5-9.6,7.5c-5.9,0-10-3.9-10-10.3C298.4,57,302.6,53,308.5,53z"/>
		<path class="st0" d="M327.4,73.3h-6.1v-20h6.1v3.3c1.4-2.1,3.6-3.5,6.3-3.5v6.5H332c-2.9,0-4.6,1-4.6,4.4V73.3z"/>
		<path class="st0" d="M345.5,73.6c-5.9,0-10.1-3.9-10.1-10.3S339.6,53,345.5,53c5.8,0,10,3.9,10,10c0,0.6,0,1.2-0.1,1.8h-13.9
			c0.2,2.6,1.8,3.8,3.8,3.8c1.7,0,2.7-0.9,3.2-1.9h6.5C354.1,70.6,350.5,73.6,345.5,73.6z M341.6,61.4h7.7c0-2.2-1.7-3.4-3.8-3.4
			C343.5,57.9,341.9,59.1,341.6,61.4z"/>
		<path class="st0" d="M366.3,53c2.7,0,4.9,1.2,6.2,3v-9.3h6.1v26.5h-6.1v-2.9c-1.1,1.8-3.2,3.2-6.2,3.2c-4.9,0-8.8-4-8.8-10.3
			C357.5,57,361.4,53,366.3,53z M368.1,58.3c-2.3,0-4.4,1.7-4.4,4.9c0,3.2,2.1,5,4.4,5c2.3,0,4.4-1.8,4.4-4.9
			C372.5,60.1,370.4,58.3,368.1,58.3z"/>
		<path class="st0" d="M382.5,47.9c0-1.9,1.5-3.3,3.7-3.3c2.1,0,3.6,1.5,3.6,3.3c0,1.8-1.5,3.3-3.6,3.3
			C383.9,51.2,382.5,49.8,382.5,47.9z M383,53.3h6.1v20H383V53.3z"/>
		<path class="st0" d="M394.6,58.4h-2.4v-5.1h2.4v-4.9h6.1v4.9h4v5.1h-4v8c0,1.2,0.5,1.7,1.9,1.7h2.2v5.2h-3.1
			c-4.2,0-7.1-1.8-7.1-6.9V58.4z"/>
		<path class="st0" d="M424.8,73.6c-5.9,0-10.3-3.9-10.3-10.3S419.1,53,424.9,53c5.9,0,10.4,3.9,10.4,10.3S430.7,73.6,424.8,73.6z
			 M424.8,68.3c2.2,0,4.2-1.6,4.2-5c0-3.4-2-5-4.2-5c-2.2,0-4.2,1.6-4.2,5C420.7,66.7,422.6,68.3,424.8,68.3z"/>
		<path class="st0" d="M444.7,73.3h-6.1v-20h6.1v3.3c1.4-2.1,3.6-3.5,6.3-3.5v6.5h-1.7c-2.9,0-4.6,1-4.6,4.4V73.3z"/>
		<path class="st0" d="M469.1,53c2.7,0,4.9,1.2,6.2,3v-9.3h6.1v26.5h-6.1v-2.9c-1.1,1.8-3.2,3.2-6.2,3.2c-4.9,0-8.8-4-8.8-10.3
			C460.3,57,464.2,53,469.1,53z M470.9,58.3c-2.3,0-4.4,1.7-4.4,4.9c0,3.2,2.1,5,4.4,5c2.3,0,4.4-1.8,4.4-4.9
			C475.2,60.1,473.2,58.3,470.9,58.3z"/>
		<path class="st0" d="M494.7,73.6c-5.9,0-10.1-3.9-10.1-10.3S488.7,53,494.7,53c5.8,0,10,3.9,10,10c0,0.6,0,1.2-0.1,1.8h-13.9
			c0.2,2.6,1.8,3.8,3.8,3.8c1.7,0,2.7-0.9,3.2-1.9h6.5C503.2,70.6,499.7,73.6,494.7,73.6z M490.7,61.4h7.7c0-2.2-1.7-3.4-3.8-3.4
			C492.6,57.9,491.1,59.1,490.7,61.4z"/>
		<path class="st0" d="M520.1,53c4.9,0,8.8,3.9,8.8,10.2c0,6.3-3.9,10.3-8.8,10.3c-2.9,0-5-1.3-6.2-3.1v2.8h-6.1V46.8h6.1v9.3
			C515.1,54.3,517.3,53,520.1,53z M518.3,58.3c-2.3,0-4.4,1.8-4.4,4.9c0,3.2,2.1,4.9,4.4,4.9c2.3,0,4.4-1.8,4.4-5
			C522.7,60.1,520.6,58.3,518.3,58.3z"/>
		<path class="st0" d="M531.6,47.9c0-1.9,1.5-3.3,3.7-3.3c2.1,0,3.6,1.5,3.6,3.3c0,1.8-1.5,3.3-3.6,3.3
			C533.1,51.2,531.6,49.8,531.6,47.9z M532.2,53.3h6.1v20h-6.1V53.3z"/>
		<path class="st0" d="M543.7,58.4h-2.4v-5.1h2.4v-4.9h6.1v4.9h4v5.1h-4v8c0,1.2,0.5,1.7,1.9,1.7h2.2v5.2h-3.1
			c-4.2,0-7.1-1.8-7.1-6.9V58.4z"/>
		<path class="st0" d="M573.7,53c5,0,8.6,2.8,9.6,7.5h-6.5c-0.5-1.4-1.5-2.3-3.2-2.3c-2.2,0-3.7,1.7-3.7,5s1.5,5,3.7,5
			c1.7,0,2.7-0.8,3.2-2.3h6.5c-1,4.6-4.6,7.5-9.6,7.5c-5.9,0-10-3.9-10-10.3C563.7,57,567.8,53,573.7,53z"/>
		<path class="st0" d="M594.1,53c3,0,5.1,1.4,6.2,3.1v-2.8h6.1v20h-6.1v-2.8c-1.1,1.8-3.2,3.1-6.2,3.1c-4.9,0-8.8-4-8.8-10.3
			C585.3,57,589.2,53,594.1,53z M595.9,58.3c-2.3,0-4.4,1.7-4.4,4.9c0,3.2,2.1,5,4.4,5c2.3,0,4.4-1.8,4.4-4.9
			C600.3,60.1,598.3,58.3,595.9,58.3z"/>
		<path class="st0" d="M617,73.3h-6.1v-20h6.1v3.3c1.4-2.1,3.6-3.5,6.3-3.5v6.5h-1.7c-2.9,0-4.6,1-4.6,4.4V73.3z"/>
		<path class="st0" d="M633.8,53c2.7,0,4.9,1.2,6.2,3v-9.3h6.1v26.5h-6.1v-2.9c-1.1,1.8-3.2,3.2-6.2,3.2c-4.9,0-8.8-4-8.8-10.3
			C625,57,628.9,53,633.8,53z M635.6,58.3c-2.3,0-4.4,1.7-4.4,4.9c0,3.2,2.1,5,4.4,5c2.3,0,4.4-1.8,4.4-4.9
			C639.9,60.1,637.9,58.3,635.6,58.3z"/>
	</g>
</g>
</svg>
