<?xml version="1.0" encoding="utf-8"?>
<!-- Generator: Adobe Illustrator 24.1.2, SVG Export Plug-In . SVG Version: 6.00 Build 0)  -->
<svg version="1.1" id="Capa_1" xmlns="http://www.w3.org/2000/svg" xmlns:xlink="http://www.w3.org/1999/xlink" x="0px" y="0px"
	 viewBox="0 0 686.8 126.4" style="enable-background:new 0 0 686.8 126.4;" xml:space="preserve">
<style type="text/css">
	.st0{fill:#B7B7B7;}
	.st1{fill:#FFFFFF;}
</style>
<path class="st0" d="M18.7,126.4C8.4,126.4,0,118,0,107.7v-89C0,8.4,8.4,0,18.7,0h649.4c10.3,0,18.7,8.4,18.7,18.7v88.9
	c0,10.4-8.4,18.8-18.7,18.8H18.7z"/>
<path class="st1" d="M668.1,124.4c9.2,0,16.7-7.5,16.7-16.8V18.7c0-9.2-7.5-16.7-16.7-16.7H18.7C9.5,2,2,9.5,2,18.7v89
	c0,9.2,7.5,16.7,16.7,16.7H668.1z"/>
<g>
	<g>
		<path class="st0" d="M405.5,39.1h-13.8c-0.8,0-1.6,0.8-2,1.6l-5.7,35.6c0,0.8,0.4,1.2,1.2,1.2h7.3c0.8,0,1.2-0.4,1.2-1.2l1.6-10.1
			c0-0.8,0.8-1.6,2-1.6h4.5c9.3,0,14.6-4.5,15.8-13.4c0.8-3.6,0-6.9-1.6-8.9C413.6,40.3,410,39.1,405.5,39.1 M407.2,52.5
			c-0.8,4.9-4.5,4.9-8.1,4.9h-2.4l1.6-9.3c0-0.4,0.4-0.8,1.2-0.8h0.8c2.4,0,4.9,0,6.1,1.6C407.2,49.2,407.2,50.4,407.2,52.5"/>
		<g>
			<path class="st0" d="M306.4,39.1h-13.8c-0.8,0-1.6,0.8-2,1.6l-5.7,35.6c0,0.8,0.4,1.2,1.2,1.2h6.5c0.8,0,1.6-0.8,2-1.6l1.6-9.7
				c0-0.8,0.8-1.6,2-1.6h4.5c9.3,0,14.6-4.5,15.8-13.4c0.8-3.6,0-6.9-1.6-8.9C314.5,40.3,311.2,39.1,306.4,39.1 M308,52.5
				c-0.8,4.9-4.5,4.9-8.1,4.9h-2l1.6-9.3c0-0.4,0.4-0.8,1.2-0.8h0.8c2.4,0,4.9,0,6.1,1.6C308,49.2,308.4,50.4,308,52.5"/>
			<path class="st0" d="M348.1,52.1h-6.5c-0.4,0-1.2,0.4-1.2,0.8l-0.4,2l-0.4-0.8c-1.6-2-4.5-2.8-7.7-2.8c-7.3,0-13.8,5.7-15,13.4
				c-0.8,4,0.4,7.7,2.4,10.1s4.9,3.2,8.5,3.2c6.1,0,9.3-3.6,9.3-3.6l-0.4,2c0,0.8,0.4,1.2,1.2,1.2h6.1c0.8,0,1.6-0.8,2-1.6l3.6-22.7
				C349.3,52.9,348.5,52.1,348.1,52.1 M338.7,65c-0.8,3.6-3.6,6.5-7.7,6.5c-2,0-3.6-0.8-4.5-1.6c-0.8-1.2-1.2-2.8-1.2-4.9
				c0.4-3.6,3.6-6.5,7.3-6.5c2,0,3.2,0.8,4.5,1.6C338.3,61.4,338.7,63.4,338.7,65"/>
		</g>
		<path class="st0" d="M446.8,52.1h-6.5c-0.4,0-1.2,0.4-1.2,0.8l-0.4,2l-0.4-0.8c-1.6-2-4.5-2.8-7.7-2.8c-7.3,0-13.8,5.7-15,13.4
			c-0.8,4,0.4,7.7,2.4,10.1c2,2.4,4.9,3.2,8.5,3.2c6.1,0,9.3-3.6,9.3-3.6l-0.4,2c0,0.8,0.4,1.2,1.2,1.2h6.1c0.8,0,1.6-0.8,2-1.6
			l3.6-22.7C448,52.9,447.6,52.1,446.8,52.1 M437.5,65c-0.8,3.6-3.6,6.5-7.7,6.5c-2,0-3.6-0.8-4.5-1.6c-0.8-1.2-1.2-2.8-1.2-4.9
			c0.4-3.6,3.6-6.5,7.3-6.5c2,0,3.2,0.8,4.5,1.6C437.5,61.4,437.9,63.4,437.5,65"/>
		<path class="st0" d="M383.3,52.1h-6.9c-0.8,0-1.2,0.4-1.6,0.8l-8.9,13.8l-4-13c-0.4-0.8-0.8-1.2-2-1.2h-6.5
			c-0.8,0-1.2,0.8-1.2,1.6l7.3,21.5l-6.9,9.7c-0.4,0.8,0,2,0.8,2h6.5c0.8,0,1.2-0.4,1.6-0.8l22.3-32
			C384.9,53.3,384.1,52.1,383.3,52.1"/>
		<path class="st0" d="M454.5,40.3l-5.7,36.4c0,0.8,0.4,1.2,1.2,1.2h5.7c0.8,0,1.6-0.8,2-1.6l5.7-35.6c0-0.8-0.4-1.2-1.2-1.2h-6.5
			C455.3,39.1,454.9,39.5,454.5,40.3"/>
	</g>
	<g>
		<path class="st0" d="M269.9,35.1c-2.8-3.2-8.1-4.9-15.4-4.9h-20.2c-1.2,0-2.4,1.2-2.8,2.4l-8.1,53c0,1.2,0.8,2,1.6,2h12.5
			l3.2-19.8v0.8c0.4-1.2,1.6-2.4,2.8-2.4h6.1c11.7,0,20.6-4.9,23.5-18.2c0-0.4,0-0.8,0-1.2C273.6,41.6,272.8,38.3,269.9,35.1z"/>
		<path class="st0" d="M274.4,48L274.4,48c0,0.4,0,0.8,0,1.2c-2.8,13.8-11.7,18.2-23.5,18.2h-6.1c-1.2,0-2.4,1.2-2.8,2.4l-4,24.7
			c0,0.8,0.4,1.6,1.6,1.6h10.5c1.2,0,2.4-0.8,2.4-2v-0.4l2-12.5v-0.8c0-1.2,1.2-2,2.4-2h1.6c10.1,0,18.2-4,20.2-16.2
			c0.8-4.9,0.4-9.3-2-12.1C276.4,49.2,275.6,48.4,274.4,48"/>
	</g>
</g>
</svg>
