<?xml version="1.0" encoding="utf-8"?>
<!-- Generator: Adobe Illustrator 24.1.2, SVG Export Plug-In . SVG Version: 6.00 Build 0)  -->
<svg version="1.1" id="Capa_1" xmlns="http://www.w3.org/2000/svg" xmlns:xlink="http://www.w3.org/1999/xlink" x="0px" y="0px"
	 viewBox="0 0 1000 1000" style="enable-background:new 0 0 1000 1000;" xml:space="preserve">
<g>
	<g>
		<path d="M817,795.5H500.2c-0.1,0-0.2,0-0.4,0H183.1c-13.2,0-24.9-8.9-28.4-21.6c-3.5-12.8,2-26.3,13.4-33.1
			c4.2-2.6,106.6-66.6,106.6-229.6c0-194,71.5-284.3,225-284.3c0.2,0,0.4,0,0.6,0c153.5,0,225,90.3,225,284.3
			c0,163,102.4,227,106.8,229.7c11.3,6.8,16.7,20.4,13.1,33.1C841.7,786.7,830.2,795.5,817,795.5z M503.8,736.7h238.1
			c-36.2-44.2-75.4-117-75.4-225.5c0-194.5-77-224.4-161.4-225.5c-3.3,0.6-6.8,0.6-10.1,0c-84.5,1-161.5,30.9-161.5,225.5
			c0,108.5-39.1,181.4-75.4,225.5h238c1.2-0.2,2.5-0.3,3.7-0.2C501.3,736.5,502.5,736.6,503.8,736.7z"/>
	</g>
	<g>
		<path d="M500,929.4c-79.9,0-144.9-73.2-144.9-163.3c0-15.1,12.2-27.3,27.3-27.3c15.1,0,27.3,12.2,27.3,27.3
			c0,59.9,40.5,108.6,90.2,108.6c49.8,0,90.3-48.7,90.3-108.6c0-15.1,12.2-27.3,27.3-27.3s27.3,12.2,27.3,27.3
			C644.9,856.2,579.9,929.4,500,929.4z"/>
	</g>
	<g>
		<path d="M569,283.7c-15.1,0-27.3-12.2-27.3-27.3V167c0-23-18.7-41.7-41.7-41.7c-23,0-41.7,18.7-41.7,41.7v89.4
			c0,15.1-12.2,27.3-27.3,27.3c-15.1,0-27.3-12.2-27.3-27.3V167c0-53.1,43.2-96.4,96.4-96.4s96.4,43.2,96.4,96.4v89.4
			C596.4,271.4,584.1,283.7,569,283.7z"/>
	</g>
</g>
</svg>
