<?xml version="1.0" encoding="utf-8"?>
<!-- Generator: Adobe Illustrator 24.1.2, SVG Export Plug-In . SVG Version: 6.00 Build 0)  -->
<svg version="1.1" id="Capa_1" xmlns="http://www.w3.org/2000/svg" xmlns:xlink="http://www.w3.org/1999/xlink" x="0px" y="0px"
	 viewBox="0 0 1000 1000" style="enable-background:new 0 0 1000 1000;" xml:space="preserve">
<style type="text/css">
	.st0{fill:none;}
</style>
<image style="display:none;overflow:visible;" width="22" height="22" xlink:href="C:\Users\bocat\Downloads\unnamed (2).png"  transform="matrix(42.6988 0 0 42.6988 16.1263 44.5668)">
</image>
<g>
	<path class="st0" d="M158.4,478.7l22.1,44.2l59.6,11.9c6.1,1.3,10.5,6.7,10.5,12.9V677l23.1,57.9l16.4,5.4v-47.6
		c0-4.1,2-8.1,5.3-10.5l47.5-35.6v-33c0-3.5,1.4-6.8,3.9-9.3l49.9-49.9l9.2-46.2h-36.6c-4.6,0-8.9-2.4-11.3-6.4l-35.7-59.5h-84.8
		c-5,0-9.6-2.8-11.8-7.3l-18.2-36.4l-49.1,49.1V478.7z"/>
	<path class="st0" d="M158.4,391.2v-22.6l-22.5-22.5c-2.5-2.5-3.9-5.8-3.9-9.3v-39.5c0-6.6,4.8-12.1,11.3-13l89.6-12.8l60.8-36.5
		l37.9-63.1c1.6-2.7,4.2-4.7,7.1-5.7L372,155l6.2-18.7l-63.9-10.7c-1.8-0.3-3.6-1-5.2-2l-19.5-13
		c-91.6,36.5-164.4,109.9-200.3,201.8l14.1,42.2L158.4,391.2z"/>
	<path class="st0" d="M507,755.2c-0.6,0.1-1.2,0.3-1.8,0.4l1.3-1.2c-7.8-12.3-14-24.5-18.7-36.8c-6.9-18.4-10.3-37.1-10.3-56.5
		c0-40.8,14-78.4,39.4-105.9c13.8-15,30.4-26.4,48.8-33.7c14.1-5.6,29.2-8.8,44.9-9.4c1.8-0.1,3.7-0.1,5.6-0.1
		c28.6,0,54.9,9.1,78,26.9c11.7,9,22.2,20,31.5,32.9C735,559,745.6,548,757.2,539c2-1.5,4-3,6-4.4c1.4-1,2.8-1.9,4.2-2.8
		c7.4-28.6,11.3-58.7,11.3-89.6C778.8,245.2,619,85.4,422,85.4c-35.1,0-68.9,5.1-100.9,14.5l0.5,0.3l76.3,12.7
		c0.7,0.1,1.3,0.3,2,0.5c6.9,2.3,10.7,9.7,8.4,16.7l-13.2,39.5c-1.3,3.9-4.4,7-8.3,8.3l-34.9,11.7l-37,61.7
		c-1.1,1.8-2.7,3.4-4.5,4.5l-65.9,39.5c-1.5,0.9-3.2,1.5-4.9,1.8l-81,11.6v22.7l22.5,22.5c2.5,2.5,3.9,5.8,3.9,9.3V384l17.1-17
		c3-3,7.2-4.4,11.4-3.7c4.2,0.7,7.8,3.3,9.7,7.1l22.6,45.4h84.1c4.6,0,8.9,2.4,11.3,6.4l35.7,59.5H422c0.9,0,1.7,0.1,2.6,0.3
		c7.1,1.4,11.8,8.4,10.3,15.5l-13.2,65.9c-0.5,2.6-1.8,4.9-3.6,6.7L369.3,619v34.1c0,4.1-2,8.1-5.3,10.5l-47.5,35.6v59.3
		c0,7.3-5.9,13.2-13.2,13.2c-1.4,0-2.8-0.2-4.1-0.7l-39.5-13.2c-3.7-1.2-6.6-4-8.1-7.6l-26.4-65.9c-0.6-1.6-0.9-3.2-0.9-4.9v-121
		L169,547.4c-4-0.8-7.4-3.4-9.2-7l-26.4-52.7c-0.9-1.8-1.4-3.8-1.4-5.9v-39.5c0-3.5,1.4-6.8,3.9-9.3l15-15l-65.7-43.8
		c-2.4-1.6-4.3-4-5.2-6.8l-4.1-12.3c-7,27.9-10.7,57.1-10.7,87.2C65.1,639.3,224.9,799,422,799c36.8,0,72.3-5.6,105.7-15.9
		c-0.3-0.3-0.6-0.7-0.9-1C519.3,773.1,512.7,764.1,507,755.2z"/>
	<path d="M536.7,747.3c-3-4.3-5.8-8.5-8.4-12.7c-7.8-12.9-13.4-25.5-17-38.3c-3.2-11.5-4.7-23-4.7-35.1c0-33.5,11.2-64.1,31.7-86.2
		c13.3-14.5,30-24.6,48.5-29.8c9.4-2.6,19.2-4,29.4-4c7.8,0,15.4,0.9,22.7,2.6c13.4,3.2,25.9,9.3,37.5,18.2
		c15.9,12.3,27,27.9,33.5,38.8c3,5,8,8.2,13.7,8.8c0.7,0.1,1.4,0.1,2.1,0.1c6.5,0,12.4-3.3,15.8-9c0.4-0.6,0.7-1.2,1.1-1.9
		c10.4-21.3,18.8-43.7,24.8-67.1c-1.4,0.9-2.8,1.8-4.2,2.8c-2,1.4-4,2.8-6,4.4c-11.7,9-22.2,20-31.5,32.9
		c-9.3-12.9-19.9-23.9-31.5-32.9c-23.1-17.9-49.3-26.9-78-26.9c-1.9,0-3.7,0-5.6,0.1c-15.7,0.6-30.8,3.8-44.9,9.4
		c-18.4,7.3-35,18.7-48.8,33.7c-25.4,27.5-39.4,65.2-39.4,105.9c0,19.4,3.4,38,10.3,56.5c4.6,12.3,10.8,24.5,18.7,36.8l-1.3,1.2
		c0.6-0.1,1.2-0.3,1.8-0.4c5.7,8.9,12.3,17.8,19.8,26.9c0.3,0.3,0.6,0.7,0.9,1c10-3.1,19.7-6.6,29.3-10.5c-2.7-3-5.3-6-7.8-9.1
		C544.6,758.1,540.5,752.7,536.7,747.3z"/>
	<path d="M934.5,555.3c-25.7-27.9-60.9-43.2-99.3-43.2c-8.2,0-16.2,0.8-24,2.3c-2,10.8-4.4,21.5-7.3,31.9c9.9-3.4,20.4-5.1,31.3-5.1
		c30.1,0,57.8,12,77.9,33.8c20.4,22.2,31.7,52.8,31.7,86.2c0,35.3-13.1,66.9-42.5,102.4c-28.4,34.3-70.7,70.3-119.7,112.1
		c-17.2,14.6-36.6,31.2-56.9,48.9c-20.2-17.7-39.6-34.2-56.7-48.8l-0.1-0.1c-30.9-26.3-59.1-50.3-82.8-73.1
		c-9.6,4.4-19.4,8.4-29.3,12c26.2,26.1,58.1,53.2,93.3,83.3l0.1,0.1c17.1,14.5,36.4,31,56.4,48.5c5.3,4.6,12.1,7.2,19.2,7.2
		c7.1,0,13.9-2.6,19.2-7.2c20.1-17.6,39.5-34.1,56.5-48.6c50-42.6,93.2-79.4,123.2-115.6c33.6-40.5,49.2-78.9,49.2-120.9
		C973.9,620.4,959.9,582.8,934.5,555.3z"/>
	<path d="M527.6,783.1C494.2,793.5,458.7,799,422,799C224.9,799,65.1,639.3,65.1,442.2c0-30.1,3.7-59.3,10.7-87.2l4.1,12.3
		c0.9,2.8,2.7,5.2,5.2,6.8l65.7,43.8l-15,15c-2.5,2.5-3.9,5.8-3.9,9.3v39.5c0,2,0.5,4.1,1.4,5.9l26.4,52.7c1.8,3.6,5.2,6.2,9.2,7
		l55.4,11.1v121c0,1.7,0.3,3.3,0.9,4.9l26.4,65.9c1.4,3.6,4.4,6.4,8.1,7.6l39.5,13.2c1.3,0.4,2.7,0.7,4.1,0.7
		c7.3,0,13.2-5.9,13.2-13.2v-59.3l47.5-35.6c3.3-2.5,5.3-6.4,5.3-10.5V619l48.9-48.9c1.8-1.8,3.1-4.2,3.6-6.7l13.2-65.9
		c1.4-7.1-3.2-14.1-10.3-15.5c-0.8-0.2-1.7-0.3-2.6-0.3h-45.3L341,422.3c-2.4-4-6.7-6.4-11.3-6.4h-84.1l-22.6-45.4
		c-1.9-3.8-5.5-6.4-9.7-7.1c-4.2-0.7-8.5,0.7-11.4,3.7l-17.1,17v-20.9c0-3.5-1.4-6.8-3.9-9.3l-22.5-22.5v-22.7l81-11.6
		c1.7-0.3,3.4-0.8,4.9-1.8l65.9-39.5c1.8-1.1,3.4-2.7,4.5-4.5l37-61.7l34.9-11.7c3.9-1.3,7-4.4,8.3-8.3l13.2-39.5
		c2.3-6.9-1.5-14.4-8.4-16.7c-0.6-0.2-1.3-0.4-2-0.5l-76.3-12.7l-0.5-0.3c32-9.4,65.9-14.5,100.9-14.5
		c197.1,0,356.8,159.8,356.8,356.8c0,30.9-3.9,61-11.3,89.6c13.6-8.7,28.2-14.6,43.6-17.5c0.1,0,0.1,0,0.2,0
		c4.3-23.4,6.6-47.5,6.6-72.1c0-218.6-177.2-395.8-395.8-395.8S26.1,223.6,26.1,442.2S203.4,838,422,838c47.3,0,92.7-8.3,134.7-23.5
		c-8.6-8.6-16.6-17-23.9-25.4C531,787.1,529.3,785.1,527.6,783.1z M207.5,398.6l18.2,36.4c2.2,4.5,6.8,7.3,11.8,7.3h84.8l35.7,59.5
		c2.4,4,6.7,6.4,11.3,6.4h36.6l-9.2,46.2l-49.9,49.9c-2.5,2.5-3.9,5.8-3.9,9.3v33l-47.5,35.6c-3.3,2.5-5.3,6.4-5.3,10.5v47.6
		l-16.4-5.4L250.6,677V547.7c0-6.3-4.4-11.7-10.5-12.9l-59.6-11.9l-22.1-44.2v-31L207.5,398.6z M289.8,110.7l19.5,13
		c1.6,1,3.3,1.7,5.2,2l63.9,10.7L372,155l-33.3,11.1c-3,1-5.5,3-7.1,5.7l-37.9,63.1L233,271.4l-89.6,12.8c-6.5,0.9-11.3,6.5-11.3,13
		v39.5c0,3.5,1.4,6.8,3.9,9.3l22.5,22.5v22.6l-54.8-36.6l-14.1-42.2C125.3,220.6,198.2,147.2,289.8,110.7z"/>
	<path d="M767.4,531.8c-6,23.4-14.4,45.8-24.8,67.1c6.6-10.8,17.4-25.3,32.4-37c7.9-6.1,16.2-10.9,25-14.3c1.3-0.5,2.6-1,3.9-1.4
		c2.8-10.5,5.3-21.1,7.3-31.9c-0.1,0-0.1,0-0.2,0C795.6,517.3,781,523.1,767.4,531.8z"/>
	<path d="M563.3,779.6c-2.2-2.3-4.3-4.6-6.3-7c-9.6,3.9-19.4,7.4-29.3,10.5c1.7,2,3.4,4,5.1,6c7.3,8.4,15.3,16.8,23.9,25.4
		c10-3.6,19.8-7.6,29.3-12C577.9,794.7,570.3,787.1,563.3,779.6z"/>
</g>
</svg>
