<?xml version="1.0" encoding="utf-8"?>
<!-- Generator: Adobe Illustrator 24.1.2, SVG Export Plug-In . SVG Version: 6.00 Build 0)  -->
<svg version="1.1" id="Capa_1" xmlns="http://www.w3.org/2000/svg" xmlns:xlink="http://www.w3.org/1999/xlink" x="0px" y="0px"
	 viewBox="0 0 1000 1000" style="enable-background:new 0 0 1000 1000;" xml:space="preserve">
<g>
	<g>
		<path d="M146.5,598.1c-125.2-125.1-125.2-328.8,0-453.9c125.1-125.1,328.7-125.2,453.9,0c125.1,125.1,125.1,328.8,0,454
			c-62.6,62.6-144.8,93.8-227,93.8S209.1,660.6,146.5,598.1z M203.3,200.9c-93.8,93.8-93.8,246.5,0,340.4
			c93.8,93.7,246.5,93.8,340.3,0c93.8-93.8,93.8-246.5,0-340.3c-46.9-46.9-108.5-70.4-170.2-70.4S250.2,154,203.3,200.9z"/>
	</g>
	<g>
		<path d="M918.6,809.2L598.1,543.6c-17.2-14.2-42.6-11.8-56.8,5.3c-12.6,15.2-12.2,36.9,0,51.5L806.9,921
			c28,33.8,78,38.4,111.8,10.5c33.8-28,38.4-78,10.5-111.8C926,815.9,922.2,812.3,918.6,809.2z"/>
	</g>
</g>
</svg>
