<svg enable-background="new 0 0 1000 1000" viewBox="0 0 1000 1000" xmlns="http://www.w3.org/2000/svg"><path d="m932.1 309.8c-21.3-57.7-52.9-108.3-93.9-150.4-41-42-90.9-74.8-148.2-97.5-57.1-22.5-121.4-34-191.2-34-68.6 0-132.4 11.3-189.5 33.5-57.4 22.4-107 54.8-147.5 96.3-40.4 41.4-71.9 92-93.5 150.4-21.4 57.9-32.3 122.5-32.3 191.9 0 68.9 10.7 132.8 31.9 189.8 21.3 57.5 53 108.1 94.3 150.3 41.3 42.3 90.7 75.2 146.9 97.8 56 22.6 119.9 34 189.7 34 70.2 0 134.6-11.3 191.2-33.6 56.8-22.4 106.5-55.1 147.4-97.1 41-42 72.8-92.9 94.3-151.2 21.4-58 32.3-122 32.3-190.2 0-68.6-10.8-132.6-31.9-190z" fill="#ffce05"/><path d="m741 504.1v7c-.2 1.7-.2 3.4-.2 5-.3 7.1-.8 14.1-1.7 21.1-1.9 15.6-5.2 30.8-10.2 45.6-13.2 39.8-35.2 73.9-66.1 102.2-28.2 25.9-60.9 44.1-97.8 54.5-12.4 3.5-25.1 5.9-37.9 7.4-6.7.7-13.4 1.2-20.1 1.4-4.6 0-9.3 0-13.9 0-.2 0-.3-.1-.5-.1-12.4-.3-24.6-1.6-36.8-3.9-22.9-4.3-44.7-11.7-65.4-22.3-29.1-14.9-54.1-34.9-75.1-59.9-22.1-26.3-37.8-56-47.2-89-4.3-15.3-7.1-30.9-8.3-46.8-.4-4.9-.6-9.8-.7-14.7 0-6.9.1-13.7 1-20.6 1.3-9.7 3.7-19 8.1-27.7 6.6-13.3 16.7-23.2 29.4-30.6 11.6-6.8 24.2-11 37.2-14 19.2-4.5 38.8-6.3 58.4-7.4 11-.6 22-1 33.1-1.1 13.3-.2 26.5-.3 39.8-.2 14.7.1 29.4 0 44-.1 13.6 0 27.2-.6 40.9-1.3 14.6-.7 29.2-1.5 43.8-2.1 12.7-.6 25.4-1 38.1-.8 9.4.1 18.8.6 28.1 1.7s18.4 2.9 27.2 5.8c21 7 36.1 20.4 44.3 41.1 5.1 12.8 7.2 26.3 8.1 40 .1 3.5.2 6.7.4 9.8z" fill="#f4a019"/><path d="m740.9 507.6c0 133.1-107.9 240.9-240.9 240.9s-240.9-107.8-240.9-240.9c0-103.3 107.9 5.8 240.9 5.8s240.9-138.9 240.9-5.8z" fill="#fff"/></svg>